<?xml version="1.0" standalone="no"?>
<!DOCTYPE svg PUBLIC "-//W3C//DTD SVG 20010904//EN"
 "http://www.w3.org/TR/2001/REC-SVG-20010904/DTD/svg10.dtd">
<svg version="1.0" xmlns="http://www.w3.org/2000/svg"
 width="260.000000pt" height="260.000000pt" viewBox="0 0 260.000000 260.000000"
 preserveAspectRatio="xMidYMid meet">
<metadata>
Created by potrace 1.11, written by Peter Selinger 2001-2013
</metadata>
<g transform="translate(0.000000,260.000000) scale(0.100000,-0.100000)"
fill="#000000" stroke="none">
<path d="M0 1300 l0 -1300 1300 0 1300 0 0 1300 0 1300 -1300 0 -1300 0 0
-1300z m997 808 c11 -15 85 -294 203 -767 45 -179 84 -329 87 -334 3 -5 9 -5
14 0 5 5 67 247 139 538 71 292 134 540 140 553 l10 22 258 0 259 0 6 -497 c4
-273 7 -654 7 -847 l0 -351 -160 -3 -160 -3 -2 623 c-3 533 -5 623 -17 623
-11 0 -39 -101 -108 -390 -51 -214 -118 -495 -149 -622 l-57 -233 -168 0 -168
0 -10 38 c-5 20 -76 298 -156 617 -81 319 -149 583 -152 588 -22 36 -24 -47
-17 -624 l7 -618 -159 -3 c-87 -2 -161 -2 -162 -1 -7 3 -15 1670 -9 1687 6 14
35 16 260 16 192 0 257 -3 264 -12z"/>
</g>
</svg>
